<svg width="16" height="16" viewBox="0 0 16 16" fill="none" xmlns="http://www.w3.org/2000/svg">
<path d="M2.69127 3.12533C2.66496 3.06461 2.65751 2.99737 2.66989 2.93237C2.68228 2.86736 2.71392 2.80757 2.76072 2.76078C2.80751 2.71398 2.8673 2.68234 2.9323 2.66995C2.99731 2.65757 3.06454 2.66502 3.12527 2.69133L13.7919 7.02466C13.8568 7.05108 13.9117 7.09727 13.9488 7.15665C13.9859 7.21603 14.0034 7.2856 13.9988 7.35548C13.9941 7.42536 13.9676 7.49201 13.9229 7.54595C13.8782 7.59989 13.8177 7.63839 13.7499 7.65599L9.66727 8.70933C9.43659 8.76863 9.22601 8.88864 9.05742 9.05688C8.88883 9.22512 8.76838 9.43544 8.7086 9.66599L7.65593 13.75C7.63833 13.8178 7.59983 13.8783 7.54589 13.923C7.49194 13.9676 7.4253 13.9942 7.35542 13.9988C7.28554 14.0035 7.21597 13.986 7.15659 13.9489C7.09721 13.9117 7.05102 13.8569 7.0246 13.792L2.69127 3.12533Z" stroke="#79716B" stroke-width="1.33333" stroke-linecap="round" stroke-linejoin="round"/>
</svg>
